<svg xmlns="http://www.w3.org/2000/svg" width="24.144" height="27.089" viewBox="0 0 14.144 17.089">
  <path id="id_102" d="M32.141,16.376,31.1,4.795a.613.613,0,0,0-.611-.559H28.346V3.269a3.269,3.269,0,1,0-6.537,0v.967H19.662a.613.613,0,0,0-.611.559L18.007,16.421a.613.613,0,0,0,.611.668H31.536a.613.613,0,0,0,.613-.613A.625.625,0,0,0,32.141,16.376ZM23.035,3.269a2.042,2.042,0,1,1,4.084,0v.967H23.035ZM19.289,15.863l.934-10.4h1.585v1.1a.613.613,0,0,0,1.227,0v-1.1h4.084v1.1a.613.613,0,0,0,1.227,0v-1.1H29.93l.934,10.4Z" transform="translate(-18.005)" fill="#fff"/>
</svg>
